#tb 0: 1/25
#media_type 0: video
#codec_id 0: rawvideo
#dimensions 0: 320x240
#sar 0: 1/1
0,          0,          0,        1,   115200, 0x441d0ff3
0,          1,          1,        1,   115200, 0x5de73658
0,          2,          2,        1,   115200, 0x1f727e03
0,          3,          3,        1,   115200, 0xbf2fa0c4
0,          4,          4,        1,   115200, 0xee4ed474
0,          5,          5,        1,   115200, 0x0013f45b
0,          6,          6,        1,   115200, 0x7c7cf929
0,          7,          7,        1,   115200, 0xd4cdf824
0,          8,          8,        1,   115200, 0x1e48fad9
0,          9,          9,        1,   115200, 0xcbbff220
0,         10,         10,        1,   115200, 0x1162fcc9
0,         11,         11,        1,   115200, 0x742ff029
0,         12,         12,        1,   115200, 0x9901f2e0
0,         13,         13,        1,   115200, 0xf0a1f828
0,         14,         14,        1,   115200, 0x585903b8
0,         15,         15,        1,   115200, 0x2dbf15f6
0,         16,         16,        1,   115200, 0x0fd011f5
0,         17,         17,        1,   115200, 0x73ec12cf
0,         18,         18,        1,   115200, 0x09c910e9
0,         19,         19,        1,   115200, 0x90811025
0,         20,         20,        1,   115200, 0xd2d721b1
0,         21,         21,        1,   115200, 0xfaa309a0
0,         22,         22,        1,   115200, 0x4c010776
0,         23,         23,        1,   115200, 0x3560eaac
0,         24,         24,        1,   115200, 0xeed2d55d
